<?xml version="1.0" encoding="UTF-8"?>
<svg id="Layer_2" data-name="Layer 2" xmlns="http://www.w3.org/2000/svg" viewBox="0 0 793.04 1121.73">
  <defs>
    <style>
      .cls-1 {
        fill: #fff;
      }

      .cls-2 {
        fill: #ffbbe8;
      }

      .cls-3 {
        fill: #ce8070;
      }

      .cls-4 {
        fill: #ecb7aa;
      }

      .cls-5 {
        fill: #3b0c1c;
      }

      .cls-6 {
        fill: #d77baf;
      }

      .cls-7 {
        fill: #370c1d;
      }

      .cls-8 {
        fill: #fcfcfc;
      }
    </style>
  </defs>
  <g id="Logo">
    <g>
      <path class="cls-2" d="M675.27,446.73c4.74-8.58,8.65-17.6,11.77-26.97l-24.24,1.66c-.44,.03-.88,.05-1.32,.05-4.59,0-8.98-1.65-12.49-4.71-3.84-3.35-6.15-7.98-6.5-13.04-.35-5.06,1.31-9.96,4.66-13.8,3.35-3.84,7.98-6.15,13.04-6.5l35.09-2.4c2.09-20.12,1.17-41.15-2.6-62.43-5.16-.82-9.96-3.73-13.01-8.45l-24.09-37.28c-2.75-4.26-3.68-9.35-2.61-14.33,1.07-4.99,4.01-9.25,8.26-12,2.12-1.37,4.41-2.25,6.75-2.7-9.29-19.08-20.77-37.71-34.3-55.39l-22.37,6.29c-1.7,.48-3.43,.71-5.15,.71-3.22,0-6.42-.83-9.32-2.46-4.45-2.5-7.65-6.56-9.02-11.44s-.75-10.02,1.74-14.47c2.5-4.45,6.56-7.65,11.44-9.02l5.02-1.41c-18.41-18.69-39.4-35.69-62.78-50.25l-24.96,30.27c-3.23,3.91-7.8,6.34-12.87,6.82-.63,.06-1.25,.09-1.87,.09-4.41,0-8.64-1.51-12.07-4.34h0c-3.91-3.23-6.34-7.8-6.82-12.87s1.02-10.03,4.25-13.94l20.31-24.63c-34.3-16.26-72.72-27.44-114.77-31.7,1.88,.9,3.64,2.11,5.2,3.67,7.42,7.43,7.42,19.51,0,26.94l-31.39,31.39c-3.71,3.71-8.59,5.57-13.47,5.57s-9.75-1.86-13.47-5.57c-7.42-7.43-7.42-19.51,0-26.93l31.39-31.39c2.33-2.33,5.13-3.93,8.09-4.8-46.16-2.97-96.47,2.34-150.31,18.28C113.35,133.68,33.07,255.9,33.07,396.52c0,60.28,14.75,117.17,40.83,167.26,24.54-.41,50.54-15.22,67.84-12.91l-2.5,1.74c.63,.01,1.26,.03,1.88,.07,3.33,.24,6.6,.97,9.64,2.01,6.09,2.12,11.22,5.36,15.69,8.71,4.5,3.37,8.45,6.94,12.17,10.5,7.43,7.11,14.1,14.11,20.9,20.32,1.74,1.59,3.48,3.12,5.24,4.59l1.76,.35c55.54,17.74,100.67-34.72,149.96-45.45-70.14-17.87-122.16-81.57-122.16-157.19,0-89.44,72.76-162.2,162.2-162.2s162.2,72.76,162.2,162.2c0,81.44-60.34,149.04-138.65,160.48,4.44,.17,8.92,.48,13.38,1.08,11.31,1.38,22.39,4.91,31.95,9.99,4.69,2.45,9.16,5,13.43,7.52l8.49,.47c117.24,36.05,104.38-108.17,187.96-129.32Zm-480.61,21.1c-3.62,0-7.18-1.04-10.31-3.06-4.28-2.77-7.23-7.02-8.3-11.98l-9.35-43.39c-2.21-10.26,4.34-20.42,14.61-22.63,4.96-1.07,10.05-.13,14.33,2.63,4.28,2.77,7.23,7.02,8.3,11.98l9.35,43.39c1.07,4.96,.13,10.05-2.63,14.33-2.77,4.28-7.02,7.23-11.98,8.3-1.34,.29-2.68,.43-4.02,.43Zm-33.44-168.52l8.46-43.57c2-10.31,12.01-17.07,22.32-15.07,4.98,.97,9.29,3.83,12.14,8.05,2.85,4.23,3.89,9.3,2.92,14.27l-8.46,43.57c-.96,4.98-3.82,9.29-8.05,12.14-3.2,2.16-6.87,3.28-10.63,3.28-1.21,0-2.43-.12-3.64-.35-10.31-2-17.07-12.02-15.07-22.33Zm80.29,211.41c8.31-6.42,20.3-4.87,26.71,3.44,3.1,4.01,4.45,9.01,3.79,14.07-.65,5.06-3.22,9.55-7.24,12.65l-35.14,27.12c-3.46,2.67-7.55,3.96-11.61,3.96-5.71,0-11.35-2.55-15.1-7.4-6.42-8.31-4.87-20.3,3.44-26.71l35.14-27.12Zm48.35-409.17c-2.46,.91-4.96,1.64-7.35,2.74l-7.22,2.99-1.8,.74-.9,.36-.88,.42-3.51,1.69-7,3.33c-2.3,1.17-4.54,2.46-6.81,3.68l-3.39,1.84c-1.13,.6-2.26,1.2-3.35,1.9l-6.55,4.03-3.27,1.99-3.17,2.17-6.31,4.33-1.57,1.08-1.52,1.16-3.04,2.31-6.07,4.61-5.83,4.92-2.92,2.43c-.97,.81-1.96,1.6-2.87,2.49l-5.57,5.18c-1.85,1.73-3.74,3.4-5.49,5.25-28.78,28.51-51.59,62.49-68.27,99.23-9.97,21.97-17.72,44.94-23.35,68.53l15.5-8.95c9.09-5.25,20.77-2.12,26.02,6.97,2.54,4.39,3.21,9.52,1.89,14.45-1.32,4.92-4.46,9.03-8.86,11.57l-38.44,22.19c-1.47,.85-3.01,1.48-4.57,1.9-.01,.09-.02,.18-.03,.27-.44,5.08-1.07,10.17-1.5,15.27-.29,5.11-.56,10.23-.92,15.36-.18,5.13-.19,10.27-.34,15.43-.02,1.29-.11,2.58-.07,3.87l.08,3.87,.15,7.75v.02c3.73-.06,7.4,.98,10.62,3.06,4.28,2.77,7.23,7.02,8.3,11.98l9.35,43.39c1.07,4.96,.13,10.05-2.63,14.33-2.77,4.28-7.02,7.23-11.98,8.3-1.34,.29-2.68,.43-4.02,.43-3.62,0-7.18-1.04-10.31-3.06-4.28-2.77-7.23-7.02-8.3-11.98l-9.35-43.39c-1.07-4.96-.13-10.05,2.63-14.33,1.12-1.74,2.5-3.25,4.07-4.51-.18-1.01-.36-2.02-.51-3.04l-1.27-7.91-.63-3.96c-.22-1.32-.31-2.65-.48-3.98-.31-2.66-.56-5.32-.83-7.99-.25-2.67-.58-5.33-.77-8.01-.31-5.35-.53-10.71-.77-16.09-.1-5.37-.03-10.75,.03-16.14,.04-1.61,.12-3.22,.19-4.83-.79-.91-1.51-1.9-2.14-2.99-4.71-8.15-2.67-18.36,4.36-24.17,4-32.27,12.77-64.09,26.33-93.87l3.43-7.4c1.16-2.46,2.49-4.84,3.73-7.26l3.78-7.23c1.29-2.39,2.71-4.72,4.09-7.06l4.19-7c1.45-2.3,2.99-4.55,4.48-6.82l4.52-6.8c1.59-2.21,3.25-4.37,4.87-6.55,1.64-2.17,3.25-4.37,4.92-6.51l5.21-6.29c1.76-2.08,3.42-4.23,5.28-6.21l5.57-5.97c7.39-7.98,15.43-15.35,23.75-22.32,1.05-.87,2.03-1.8,3.13-2.61l3.25-2.47,6.49-4.91c1.06-.84,2.2-1.58,3.33-2.34l3.37-2.28c2.25-1.52,4.51-3.01,6.77-4.49l7.01-4.11,3.5-2.05c.58-.34,1.16-.69,1.76-1.01l1.82-.91,7.25-3.64,3.62-1.8,3.73-1.59,7.45-3.13c1.22-.55,2.5-.99,3.77-1.43l3.81-1.32c2.55-.85,5.07-1.77,7.62-2.56l7.77-2.09c5.11-1.53,10.44-2.31,15.64-3.33,2.59-.54,5.26-.75,7.9-1.05,2.64-.29,5.27-.55,7.89-.79-2.49,.92-4.97,1.82-7.44,2.7Zm196.29,112.66c-2.82,4.21-7.13,7.08-12.13,8.07-1.25,.25-2.51,.37-3.76,.37-3.73,0-7.37-1.1-10.53-3.21l-36.89-24.68c-8.73-5.84-11.08-17.69-5.24-26.42,5.84-8.73,17.7-11.08,26.42-5.24l36.89,24.69c4.21,2.82,7.08,7.13,8.07,12.13s-.02,10.08-2.84,14.29Zm133.17,134.92c2.75,4.26,3.68,9.35,2.61,14.33-1.07,4.99-4.01,9.25-8.26,12-3.19,2.06-6.77,3.04-10.31,3.04-6.25,0-12.38-3.07-16.02-8.7l-24.1-37.28c-5.7-8.82-3.16-20.63,5.66-26.33,8.82-5.7,20.63-3.16,26.33,5.66l24.09,37.28Zm-80.52-84.69c-1.72,.48-3.45,.71-5.15,.71-8.32,0-15.98-5.5-18.34-13.89-1.37-4.88-.75-10.02,1.74-14.46,2.5-4.45,6.56-7.65,11.44-9.02l42.73-12.01c10.12-2.84,20.65,3.07,23.49,13.18,1.37,4.88,.75,10.02-1.74,14.46-2.5,4.45-6.56,7.65-11.44,9.02l-42.73,12.01Zm15.67,212.07l35.14-27.12c8.31-6.42,20.3-4.87,26.71,3.44,3.1,4.01,4.45,9.01,3.79,14.07-.65,5.06-3.22,9.55-7.24,12.65l-35.14,27.12c-3.46,2.67-7.55,3.96-11.61,3.96-5.71,0-11.35-2.55-15.1-7.4-6.42-8.31-4.87-20.3,3.44-26.71Z"/>
      <path class="cls-4" d="M522.99,688.17c7.04-6.3,41.2-36.95,60.85-57.81,4.79-5.89,9.45-12.04,13.99-18.45,.27-3.36-6.86-1.15-26.1,10.49-80.2,48.53-154.08-40.8-193.14-6.86-75.98,65.98-136.18,42.75-176.28,18.64l.87-.12c-4.21-2.95-8.1-6.16-11.74-9.47-4.01-3.73-7.71-7.6-11.16-11.5-6.94-7.78-12.94-15.76-18.92-22.97-2.99-3.58-5.96-7-8.97-9.93-3.01-2.96-6.08-5.35-9.09-6.91-3.02-1.57-5.96-2.31-9.34-2.15-3.36,.15-7.15,1.29-10.94,3.13l-.71,.34-.85,.44-1.71,.88c-1.15,.57-2.29,1.15-3.46,1.7-2.32,1.11-4.68,2.16-7.08,3.14-4.8,1.97-9.76,3.72-14.98,4.87-2.37,.52-4.79,.93-7.26,1.17,53.42,86.59,142.12,149.19,245.91,167.6,78.63-6.09,158.63-31.9,222.94-93.57l-32.83,27.35Z"/>
      <path class="cls-4" d="M755.18,455.48c-.4,.83-.82,1.66-1.26,2.49,.29-.04,.58-.07,.86-.11,.14-.79,.27-1.58,.4-2.38Z"/>
      <path class="cls-3" d="M753.92,457.97c-.26,.49-.52,.98-.8,1.46-.69,1.19-1.43,2.38-2.31,3.59-.89,1.2-1.9,2.43-3.32,3.64-.72,.6-1.55,1.21-2.6,1.74-1.04,.53-2.35,.99-3.85,1.12-.75,.06-1.53,.04-2.3-.08-.39-.05-.76-.14-1.12-.24l-.62-.17-1.75-.48c-4.66-1.26-9.29-2.38-13.9-3.28-9.2-1.82-18.39-2.74-27.1-1.93-8.71,.78-16.8,3.39-23.61,7.84-.41,.28-.9,.56-1.23,.82l-1.05,.79-1.04,.87-1.02,.95c-1.35,1.31-2.67,2.79-3.96,4.38-2.56,3.21-4.93,6.91-7.15,10.81-4.43,7.86-8.3,16.53-12.1,25.38-3.8,8.88-7.51,17.99-11.49,27.16-4,9.17-8.3,18.4-13.27,27.57-4.99,9.15-10.65,18.28-17.71,26.91-3.54,4.31-7.44,8.48-11.76,12.4-4.31,3.92-9.13,7.52-14.34,10.67-5.2,3.16-10.88,5.76-16.79,7.69-1.52,.52-2.86,.89-4.23,1.29-1.37,.4-2.78,.74-4.17,1.11-2.83,.66-5.69,1.29-8.63,1.73-5.86,.94-11.97,1.36-18.12,1.14-6.15-.21-12.33-1.09-18.23-2.51-5.91-1.41-11.52-3.36-16.76-5.52-5.25-2.16-10.13-4.52-14.75-6.85-9.24-4.69-17.49-9.2-25.52-12.76-8.04-3.55-15.34-7.15-23.06-10.54-3.87-1.61-7.84-3.17-11.99-4.27-4.14-1.12-8.43-1.85-12.79-2.15-8.78-.46-17.43,.23-25.48,2.1-8.08,1.89-15.51,5.09-22.49,9.6-7.04,4.44-13.63,10.28-20.91,16.79-3.64,3.24-7.46,6.66-11.61,10.06-4.18,3.37-8.68,6.75-13.65,9.76-4.93,3.06-10.33,5.7-15.92,7.84-5.62,2.07-11.43,3.66-17.25,4.58-5.81,.99-11.59,1.35-17.25,1.34-1.42,.01-2.82-.05-4.22-.07-1.46-.07-2.97-.17-4.45-.28-2.98-.29-5.96-.66-8.92-1.25-11.87-2.21-23.22-7.13-32.69-13.65-.49-.33-.96-.68-1.44-1.02l-.87,.12c40.1,24.1,100.29,47.34,176.28-18.64,39.07-33.94,112.94,55.4,193.14,6.86,19.24-11.64,26.37-13.85,26.1-10.49-4.54,6.4-9.2,12.55-13.99,18.45-19.65,20.87-53.81,51.51-60.85,57.81l32.83-27.35c-64.31,61.67-144.31,87.48-222.94,93.57,20.67,3.67,41.93,5.58,63.64,5.58,179.5,0,329.03-130.81,358.26-302.11-.28,.04-.57,.07-.86,.11Z"/>
      <path class="cls-6" d="M740.31,457.83c-.28,.05-.39,.15-.32,.15,.05,0,.2-.05,.39-.16-.02,0-.05,0-.07,0Z"/>
      <path class="cls-6" d="M396.52,33.07c-59.78,0-116.24,14.51-166.04,40.19,53.84-15.95,104.15-21.25,150.31-18.28,4.5-1.32,9.38-.93,13.65,1.13,42.05,4.26,80.47,15.44,114.77,31.7l7.93-9.62c3.23-3.91,7.8-6.34,12.87-6.82,5.08-.49,10.03,1.02,13.94,4.25,3.91,3.23,6.34,7.8,6.82,12.87,.49,5.08-1.02,10.02-4.25,13.94l-3.28,3.97c23.38,14.55,44.37,31.56,62.78,50.25l37.71-10.6c10.12-2.84,20.65,3.08,23.49,13.18,1.37,4.88,.75,10.02-1.74,14.46-2.5,4.45-6.56,7.65-11.44,9.02l-20.37,5.72c13.53,17.67,25.01,36.3,34.3,55.39,7.39-1.41,15.25,1.65,19.58,8.35l24.09,37.28c5.7,8.82,3.16,20.63-5.66,26.33-3.19,2.06-6.77,3.04-10.31,3.04-1.01,0-2.02-.09-3.01-.25,3.77,21.28,4.7,42.31,2.6,62.43l9.19-.63c10.49-.73,19.58,7.22,20.3,17.7,.72,10.48-7.22,19.58-17.7,20.3l-20.04,1.37c-3.12,9.36-7.03,18.38-11.77,26.97-83.58,21.15-70.72,165.37-187.96,129.32l-8.49-.47c4.48,2.64,8.74,5.24,12.83,7.63,8,4.68,15.34,8.49,22.46,10.69,7.11,2.25,14.23,3.03,21.97,2.34,1.92-.15,3.88-.45,5.86-.76,.99-.2,1.98-.35,2.98-.58,1-.22,2.04-.44,2.86-.66,3.48-.88,6.9-2.1,10.22-3.79,6.66-3.31,12.98-8.33,18.82-14.46,5.83-6.16,11.21-13.34,16.21-21.05,5.01-7.72,9.64-15.97,14.2-24.43,4.58-8.46,9.03-17.18,13.72-25.98,4.72-8.8,9.61-17.71,15.59-26.48,3.02-4.38,6.32-8.72,10.26-12.86,1.98-2.07,4.13-4.07,6.51-5.93l1.83-1.37,1.93-1.3c.66-.42,1.35-.82,2.03-1.22,.69-.42,1.29-.69,1.94-1.04,5.09-2.66,10.55-4.57,16.05-5.81,2.76-.61,5.53-1.03,8.29-1.33,2.76-.26,5.51-.39,8.24-.38,10.91,.08,21.31,2.21,31.09,5.21,4.89,1.52,9.66,3.24,14.31,5.04l1.6,.63c.49-.33,1.09-.86,1.68-1.51,.65-.7,1.31-1.53,1.94-2.4,2.55-3.54,4.81-7.76,6.91-12.03,2.08-4.3,4.05-8.72,5.91-13.2,.64-1.54,1.25-3.09,1.87-4.64,.68-9.04,1.02-18.16,1.02-27.37,0-200.41-163.04-363.45-363.45-363.45Z"/>
      <path class="cls-6" d="M206.52,599.16l-1.76-.35c5.1,4.28,10.27,8.01,15.58,10.9,1.77,1,3.58,1.82,5.38,2.64,1.82,.74,3.62,1.47,5.45,2.04,3.65,1.2,7.36,1.95,11.12,2.34,1.88,.21,3.79,.27,5.69,.3l2.9-.06c1.04-.06,2.1-.07,3.13-.15,2.07-.14,4.11-.33,6.11-.61,2-.25,3.96-.57,5.88-.97,7.7-1.59,14.62-4.28,21.53-8.3,6.9-4.01,13.89-9.46,21.6-15.62,7.68-6.14,16.3-12.82,26.11-18.45,4.9-2.81,10.11-5.26,15.45-7.37,2.68-1.03,5.39-1.98,8.12-2.8,2.73-.85,5.49-1.57,8.25-2.19,4.89-1.13,9.77-1.91,14.63-2.45-8.62-.78-17.05-2.24-25.23-4.32-49.29,10.73-94.42,63.19-149.96,45.45Z"/>
      <path class="cls-6" d="M73.91,563.78c2.44,4.69,4.98,9.33,7.62,13.9,3.15-.54,6.31-1.55,9.39-2.82,4.15-1.74,8.23-3.89,12.19-6.31,1.98-1.2,3.94-2.48,5.88-3.8,.97-.65,1.93-1.33,2.9-2l1.44-1.03,.72-.52,.87-.59c2.29-1.61,4.82-3.06,7.53-4.34,2.7-1.29,5.67-2.32,8.84-2.96,2.56-.53,5.26-.77,7.96-.71l2.5-1.74c-17.3-2.31-43.3,12.5-67.84,12.91Z"/>
      <path class="cls-8" d="M74.06,373.22c-.07,1.61-.14,3.22-.19,4.83-.06,5.39-.13,10.77-.03,16.14,.24,5.37,.46,10.74,.77,16.09,.19,2.67,.52,5.34,.77,8.01,.27,2.67,.53,5.33,.83,7.99,.16,1.33,.26,2.66,.48,3.98l.63,3.96,1.27,7.91c.15,1.01,.33,2.03,.51,3.04,2.28-1.84,4.97-3.15,7.91-3.79,1.23-.27,2.48-.41,3.71-.43v-.02s-.15-7.75-.15-7.75l-.08-3.87c-.04-1.29,.05-2.58,.07-3.87,.16-5.16,.16-10.3,.34-15.43,.36-5.13,.63-10.25,.92-15.36,.42-5.1,1.06-10.19,1.5-15.27,.01-.09,.02-.18,.03-.27-1.62,.44-3.28,.65-4.92,.65-5.42,0-10.72-2.32-14.39-6.53Z"/>
      <path class="cls-8" d="M281.51,100.71c-5.2,1.03-10.53,1.8-15.64,3.33l-7.77,2.09c-2.56,.79-5.07,1.71-7.62,2.56l-3.81,1.32c-1.27,.44-2.55,.89-3.77,1.43l-7.45,3.13-3.73,1.59-3.62,1.8-7.25,3.64-1.82,.91c-.6,.32-1.17,.67-1.76,1.01l-3.5,2.05-7.01,4.11c-2.27,1.47-4.53,2.97-6.77,4.49l-3.37,2.28c-1.12,.76-2.27,1.5-3.33,2.34l-6.49,4.91-3.25,2.47c-1.1,.81-2.08,1.74-3.13,2.61-8.32,6.97-16.36,14.34-23.75,22.32l-5.57,5.97c-1.87,1.98-3.53,4.14-5.28,6.21l-5.21,6.29c-1.67,2.14-3.28,4.34-4.92,6.51-1.62,2.18-3.29,4.34-4.87,6.55l-4.52,6.8c-1.49,2.27-3.04,4.52-4.48,6.82l-4.19,7c-1.39,2.34-2.8,4.67-4.09,7.06l-3.78,7.23c-1.24,2.42-2.57,4.8-3.73,7.26l-3.43,7.4c-13.56,29.78-22.33,61.6-26.33,93.87,.81-.67,1.67-1.3,2.61-1.84l22.94-13.25c5.63-23.58,13.39-46.55,23.35-68.53,16.68-36.74,39.49-70.73,68.27-99.23,1.74-1.85,3.64-3.52,5.49-5.25l5.57-5.18c.91-.89,1.9-1.68,2.87-2.49l2.92-2.43,5.83-4.92,6.07-4.61,3.04-2.31,1.52-1.16,1.57-1.08,6.31-4.33,3.17-2.17,3.27-1.99,6.55-4.03c1.08-.7,2.21-1.3,3.35-1.9l3.39-1.84c2.26-1.22,4.51-2.51,6.81-3.68l7-3.33,3.51-1.69,.88-.42,.9-.36,1.8-.74,7.22-2.99c2.39-1.1,4.89-1.83,7.35-2.74,2.47-.87,4.95-1.78,7.44-2.7-2.62,.24-5.25,.5-7.89,.79-2.63,.3-5.3,.51-7.9,1.05Z"/>
      <path class="cls-5" d="M676.9,676.9c-36.41,36.41-78.81,65-126.03,84.97-48.9,20.68-100.83,31.17-154.35,31.17s-105.45-10.49-154.35-31.17c-47.22-19.97-89.62-48.56-126.03-84.97-25.68-25.68-47.44-54.35-65.06-85.57,35.81,68.78,91.48,140.46,111.65,166.18,25.4,32.37,16.41,90.07,30.59,95.7,14.18,5.63,34.26-2.11,47.41-53.48,13.19-51.53,124.1,13.1,132.9,105.55,9.34,98.16-20.85,112.31-20.85,157.97,0,54.21,58.29,88.66,87.38,21.11,29.09-67.55-67.2-131.88,26.05-238.19,9.87-11.26,62.76-59.33,95.35-42.92,36.35,18.3,26.66-26.74,52.96-45.74,9.1-6.57,62.3-8.44,34.61,88.66s18.77,108.43,41.53,98.51c38.76-16.89,19.38-66.15,8.31-149.18-10.11-75.81,15.55-132.86,50.24-217.6-18.76,36.47-42.99,69.68-72.31,99Z"/>
      <path class="cls-5" d="M184.01,1067.12c57.7,.04,9.15-112.59-2.81-127.36-40.11,71.77-40.11,127.33,2.81,127.36Z"/>
      <path class="cls-6" d="M496.77,132.85h0c2.2,1.82,5,2.67,7.87,2.39,2.87-.28,5.45-1.64,7.27-3.84l28.24-34.25c3.77-4.57,3.12-11.36-1.46-15.14-1.93-1.59-4.32-2.44-6.81-2.44-.35,0-.71,.02-1.06,.05-2.87,.28-5.45,1.64-7.27,3.84l-28.24,34.25c-3.77,4.57-3.12,11.36,1.46,15.14Z"/>
      <path class="cls-4" d="M603.26,166.04c-2.75,.77-5.04,2.58-6.45,5.1-1.41,2.51-1.76,5.41-.99,8.16s2.58,5.04,5.1,6.45c2.52,1.41,5.41,1.76,8.16,.99l42.73-12.01c2.75-.77,5.04-2.58,6.45-5.1,1.41-2.51,1.76-5.41,.99-8.16-1.33-4.74-5.66-7.84-10.35-7.84-.96,0-1.94,.13-2.9,.4l-42.73,12.01Z"/>
      <path class="cls-6" d="M585.74,239.37c1.41-2.51,1.76-5.41,.99-8.16-1.33-4.74-5.66-7.84-10.35-7.84-.96,0-1.94,.13-2.91,.4l-42.73,12.01c-2.75,.77-5.04,2.58-6.45,5.1-1.41,2.51-1.76,5.41-.99,8.16,1.6,5.71,7.56,9.04,13.26,7.44l42.73-12.01c2.75-.77,5.04-2.58,6.45-5.1Z"/>
      <path class="cls-4" d="M588.25,316.38c-2.05-3.18-5.52-4.91-9.05-4.91-2,0-4.02,.56-5.82,1.72-4.98,3.22-6.41,9.89-3.19,14.87l24.1,37.28c1.55,2.4,3.96,4.05,6.78,4.66,2.82,.6,5.69,.08,8.09-1.46s4.05-3.96,4.66-6.78,.08-5.69-1.46-8.09l-24.09-37.28Z"/>
      <path class="cls-1" d="M662.54,268.36l24.09,37.28c3.22,4.98,9.89,6.41,14.87,3.19,2.4-1.55,4.05-3.96,4.66-6.78s.08-5.69-1.46-8.09l-24.09-37.28c-1.55-2.4-3.96-4.05-6.78-4.66-.77-.16-1.54-.25-2.3-.25-2.04,0-4.04,.58-5.79,1.71-2.4,1.55-4.05,3.96-4.66,6.78s-.08,5.69,1.46,8.09Z"/>
      <path class="cls-1" d="M480.84,201.55c-.56-2.83-2.18-5.26-4.55-6.85l-36.89-24.69c-1.83-1.23-3.91-1.81-5.96-1.81-3.47,0-6.88,1.67-8.95,4.77-3.3,4.93-1.97,11.62,2.96,14.92l36.89,24.68c2.37,1.59,5.24,2.15,8.07,1.59,2.83-.56,5.26-2.18,6.85-4.55h0c1.59-2.37,2.15-5.24,1.59-8.07Z"/>
      <path class="cls-6" d="M347.19,112.23c4.19,4.19,11.01,4.19,15.2,0l31.39-31.39c4.19-4.19,4.19-11.01,0-15.21-2.1-2.1-4.85-3.14-7.6-3.14s-5.51,1.05-7.6,3.14l-31.38,31.39c-4.19,4.19-4.19,11.01,0,15.2Z"/>
      <path class="cls-1" d="M83.04,351.39c-5.13,2.96-6.9,9.55-3.94,14.69,2.97,5.13,9.56,6.9,14.69,3.94l38.44-22.19c5.13-2.96,6.9-9.55,3.94-14.69-1.43-2.47-3.75-4.25-6.53-4.99-2.78-.75-5.68-.37-8.15,1.06l-38.44,22.19Z"/>
      <path class="cls-1" d="M209.49,559.49c1.74,2.26,4.28,3.71,7.14,4.08,2.86,.37,5.68-.39,7.94-2.13l35.14-27.12c2.26-1.74,3.71-4.28,4.08-7.14,.37-2.86-.39-5.68-2.13-7.94-1.74-2.26-4.28-3.71-7.14-4.08-.47-.06-.94-.09-1.41-.09-2.36,0-4.64,.77-6.53,2.22l-35.14,27.12c-4.69,3.62-5.57,10.39-1.94,15.08Z"/>
      <path class="cls-1" d="M557.59,498.18c1.74,2.26,4.28,3.71,7.14,4.08,2.86,.37,5.68-.39,7.94-2.13l35.14-27.12c2.26-1.74,3.71-4.28,4.08-7.14,.37-2.86-.39-5.68-2.13-7.94-1.74-2.26-4.28-3.71-7.14-4.08-.47-.06-.94-.09-1.41-.09-2.36,0-4.64,.77-6.53,2.22l-35.14,27.12c-2.26,1.74-3.71,4.28-4.08,7.14-.37,2.86,.39,5.68,2.13,7.94Z"/>
      <path class="cls-6" d="M660.76,391.7c-2.85,.2-5.46,1.5-7.36,3.67-1.9,2.17-2.83,4.94-2.64,7.79,.2,2.85,1.5,5.46,3.67,7.36,2.17,1.9,4.95,2.83,7.79,2.64l44.28-3.03c5.91-.41,10.4-5.55,9.99-11.46-.39-5.67-5.12-10.02-10.72-10.02-.25,0-.49,0-.74,.03l-44.28,3.03Z"/>
      <path class="cls-6" d="M82,454.16c-1.56,2.42-2.09,5.29-1.49,8.09l9.35,43.39c.6,2.79,2.27,5.19,4.69,6.75,2.42,1.56,5.29,2.09,8.09,1.49,2.79-.6,5.19-2.27,6.75-4.69,1.56-2.42,2.09-5.29,1.49-8.09l-9.35-43.39c-.6-2.79-2.27-5.19-4.69-6.75-1.77-1.14-3.78-1.73-5.83-1.73-.75,0-1.51,.08-2.26,.24-2.79,.6-5.19,2.27-6.75,4.69Z"/>
      <path class="cls-4" d="M205.18,446.52l-9.35-43.39c-.6-2.79-2.27-5.19-4.69-6.75-1.77-1.14-3.78-1.73-5.83-1.73-.75,0-1.51,.08-2.26,.24-5.79,1.25-9.49,6.98-8.25,12.78l9.35,43.39c.6,2.79,2.27,5.19,4.69,6.75,2.42,1.56,5.29,2.1,8.09,1.49,2.79-.6,5.19-2.27,6.75-4.69,1.56-2.42,2.09-5.29,1.49-8.09Z"/>
      <path class="cls-4" d="M177.87,313.5c2.8,.54,5.66-.04,8.05-1.66s4.01-4.04,4.55-6.85l8.46-43.57c.54-2.8-.04-5.66-1.66-8.05-1.61-2.39-4.04-4.01-6.85-4.55-.69-.13-1.38-.2-2.05-.2-5.04,0-9.56,3.57-10.55,8.7l-8.46,43.57c-.54,2.8,.04,5.66,1.66,8.05,1.61,2.39,4.05,4.01,6.85,4.55Z"/>
      <path class="cls-7" d="M484.67,126.38c.49,5.08,2.91,9.65,6.82,12.87h0c3.43,2.83,7.66,4.34,12.07,4.34,.62,0,1.25-.03,1.87-.09,5.08-.49,9.65-2.91,12.87-6.82l24.96-30.27,3.28-3.97c3.23-3.91,4.73-8.86,4.25-13.94-.49-5.08-2.91-9.65-6.82-12.87-3.91-3.23-8.86-4.73-13.94-4.25-5.08,.49-9.65,2.91-12.87,6.82l-7.93,9.62-20.31,24.63c-3.23,3.91-4.73,8.86-4.25,13.94Zm10.64-8.66l28.24-34.25c1.82-2.2,4.4-3.57,7.27-3.84,.36-.03,.71-.05,1.06-.05,2.49,0,4.88,.85,6.81,2.44,4.57,3.77,5.23,10.56,1.46,15.14l-28.24,34.25c-1.82,2.2-4.4,3.57-7.27,3.84-2.87,.28-5.66-.57-7.87-2.39h0c-4.57-3.77-5.23-10.56-1.46-15.14Z"/>
      <path class="cls-7" d="M589.58,167.08c-2.5,4.45-3.12,9.58-1.74,14.47s4.58,8.94,9.02,11.44c2.9,1.63,6.09,2.46,9.32,2.46,1.72,0,3.45-.24,5.15-.71l22.37-6.29,20.37-5.72c4.88-1.37,8.94-4.58,11.44-9.02,2.5-4.45,3.12-9.58,1.74-14.46-2.84-10.11-13.37-16.03-23.49-13.18l-37.71,10.6-5.02,1.41c-4.88,1.37-8.95,4.58-11.44,9.02Zm59.32-13.45c4.7,0,9.02,3.11,10.35,7.84,.77,2.75,.42,5.65-.99,8.16-1.41,2.51-3.7,4.32-6.45,5.1l-42.73,12.01c-2.75,.77-5.65,.42-8.16-.99-2.51-1.41-4.32-3.7-5.1-6.45s-.42-5.65,.99-8.16c1.41-2.51,3.7-4.32,6.45-5.1l42.73-12.01c.97-.27,1.94-.4,2.9-.4Z"/>
      <path class="cls-7" d="M592.97,243.43c2.5-4.45,3.12-9.58,1.74-14.46-2.84-10.11-13.37-16.02-23.49-13.18l-42.73,12.01c-4.88,1.37-8.94,4.58-11.44,9.02-2.5,4.45-3.12,9.58-1.74,14.46,2.36,8.39,10.02,13.89,18.34,13.89,1.7,0,3.43-.23,5.15-.71l42.73-12.01c4.88-1.37,8.94-4.58,11.44-9.02Zm-69.67,5.6c-.77-2.75-.42-5.65,.99-8.16,1.41-2.51,3.7-4.32,6.45-5.1l42.73-12.01c.97-.27,1.94-.4,2.91-.4,4.7,0,9.02,3.11,10.35,7.84,.77,2.75,.42,5.65-.99,8.16-1.41,2.51-3.7,4.32-6.45,5.1l-42.73,12.01c-5.7,1.6-11.66-1.73-13.26-7.44Z"/>
      <path class="cls-7" d="M568.88,306.22c-8.82,5.7-11.36,17.51-5.66,26.33l24.1,37.28c3.64,5.63,9.77,8.7,16.02,8.7,3.54,0,7.12-.98,10.31-3.04,4.26-2.75,7.19-7.01,8.26-12,1.07-4.98,.14-10.08-2.61-14.33l-24.09-37.28c-5.7-8.82-17.51-11.36-26.33-5.66Zm44.93,55.53c-.61,2.82-2.26,5.23-4.66,6.78s-5.27,2.07-8.09,1.46c-2.82-.61-5.23-2.26-6.78-4.66l-24.1-37.28c-3.22-4.98-1.79-11.65,3.19-14.87,1.8-1.16,3.82-1.72,5.82-1.72,3.53,0,6.99,1.73,9.05,4.91l24.09,37.28c1.55,2.4,2.07,5.27,1.46,8.09Z"/>
      <path class="cls-7" d="M652.97,258.53c-1.07,4.98-.14,10.08,2.61,14.33l24.09,37.28c3.05,4.72,7.86,7.63,13.01,8.45,.99,.16,2,.25,3.01,.25,3.54,0,7.12-.98,10.31-3.04,8.82-5.7,11.36-17.51,5.66-26.33l-24.09-37.28c-4.33-6.7-12.19-9.76-19.58-8.35-2.34,.45-4.63,1.33-6.75,2.7-4.26,2.75-7.19,7.01-8.26,12Zm12.77-5.03c1.75-1.13,3.74-1.71,5.79-1.71,.76,0,1.54,.08,2.3,.25,2.82,.61,5.23,2.26,6.78,4.66l24.09,37.28c1.55,2.4,2.07,5.27,1.46,8.09s-2.26,5.23-4.66,6.78c-4.98,3.22-11.65,1.79-14.87-3.19l-24.09-37.28c-1.55-2.4-2.07-5.27-1.46-8.09s2.26-5.23,4.66-6.78Z"/>
      <path class="cls-7" d="M480.91,187.8l-36.89-24.69c-8.72-5.84-20.58-3.49-26.42,5.24-5.84,8.73-3.49,20.58,5.24,26.42l36.89,24.68c3.16,2.11,6.8,3.21,10.53,3.21,1.25,0,2.51-.12,3.76-.37,5-.99,9.31-3.86,12.13-8.07,2.82-4.21,3.83-9.29,2.84-14.29s-3.86-9.31-8.07-12.13Zm-1.66,21.81c-1.59,2.37-4.02,3.99-6.85,4.55-2.83,.56-5.69,0-8.07-1.59l-36.89-24.68c-4.93-3.3-6.25-9.99-2.96-14.92,2.07-3.1,5.48-4.77,8.95-4.77,2.05,0,4.13,.59,5.96,1.81l36.89,24.69c2.37,1.59,3.99,4.02,4.55,6.85,.56,2.83,0,5.69-1.59,8.07h0Z"/>
      <path class="cls-7" d="M341.32,91.17c-7.42,7.43-7.42,19.51,0,26.93,3.71,3.71,8.59,5.57,13.47,5.57s9.75-1.86,13.47-5.57l31.39-31.39c7.42-7.43,7.42-19.51,0-26.94-1.55-1.55-3.32-2.76-5.2-3.67-4.27-2.06-9.16-2.45-13.65-1.13-2.96,.87-5.75,2.46-8.09,4.8l-31.39,31.39Zm44.85-28.67c2.75,0,5.51,1.05,7.6,3.14,4.19,4.19,4.19,11.01,0,15.21l-31.39,31.39c-4.19,4.19-11.01,4.19-15.2,0-4.19-4.19-4.19-11.01,0-15.2l31.38-31.39c2.1-2.1,4.85-3.14,7.6-3.14Z"/>
      <path class="cls-7" d="M76.28,346.05c-7.02,5.81-9.07,16.02-4.36,24.17,.63,1.08,1.35,2.08,2.14,2.99,3.67,4.22,8.97,6.53,14.39,6.53,1.64,0,3.3-.22,4.92-.65,1.57-.42,3.1-1.05,4.57-1.9l38.44-22.19c4.39-2.54,7.54-6.64,8.86-11.57,1.32-4.92,.65-10.06-1.89-14.45-5.25-9.09-16.92-12.22-26.02-6.97l-15.5,8.95-22.94,13.25c-.94,.54-1.8,1.17-2.61,1.84Zm53.35-17.91c2.79,.75,5.11,2.52,6.53,4.99,2.96,5.13,1.2,11.72-3.94,14.69l-38.44,22.19c-5.13,2.97-11.72,1.2-14.69-3.94-2.96-5.13-1.2-11.72,3.94-14.69l38.44-22.19c2.47-1.43,5.37-1.8,8.15-1.06Z"/>
      <path class="cls-7" d="M202.92,564.56c3.75,4.86,9.39,7.4,15.1,7.4,4.06,0,8.16-1.29,11.61-3.96l35.14-27.12c4.01-3.1,6.58-7.59,7.24-12.65,.65-5.06-.7-10.05-3.79-14.07-6.42-8.31-18.4-9.86-26.71-3.44l-35.14,27.12c-8.31,6.42-9.86,18.4-3.44,26.71Zm8.51-20.15l35.14-27.12c1.89-1.46,4.16-2.22,6.53-2.22,.47,0,.94,.03,1.41,.09,2.86,.37,5.4,1.82,7.14,4.08,1.75,2.26,2.5,5.08,2.13,7.94-.37,2.86-1.82,5.4-4.08,7.14l-35.14,27.12c-2.26,1.74-5.08,2.5-7.94,2.13-2.86-.37-5.4-1.82-7.14-4.08-3.62-4.69-2.75-11.46,1.94-15.08Z"/>
      <path class="cls-7" d="M566.12,510.65c4.06,0,8.16-1.29,11.61-3.96l35.14-27.12c4.01-3.1,6.58-7.59,7.24-12.65,.65-5.06-.7-10.05-3.79-14.07-6.42-8.31-18.4-9.86-26.71-3.44l-35.14,27.12c-8.31,6.42-9.86,18.4-3.44,26.71,3.75,4.86,9.39,7.4,15.1,7.4Zm-6.59-27.55l35.14-27.12c1.89-1.46,4.16-2.22,6.53-2.22,.47,0,.94,.03,1.41,.09,2.86,.37,5.4,1.82,7.14,4.08,1.75,2.26,2.5,5.08,2.13,7.94-.37,2.86-1.82,5.4-4.08,7.14l-35.14,27.12c-2.26,1.74-5.08,2.5-7.94,2.13-2.86-.37-5.4-1.82-7.14-4.08-1.75-2.26-2.5-5.08-2.13-7.94,.37-2.86,1.82-5.4,4.08-7.14Z"/>
      <path class="cls-7" d="M647.15,389.92c-3.35,3.84-5.01,8.75-4.66,13.8,.35,5.06,2.65,9.69,6.5,13.04,3.51,3.06,7.9,4.71,12.49,4.71,.44,0,.88-.02,1.32-.05l24.24-1.66,20.04-1.37c10.48-.72,18.42-9.82,17.7-20.3-.72-10.48-9.81-18.43-20.3-17.7l-9.19,.63-35.09,2.4c-5.06,.35-9.69,2.65-13.04,6.5Zm58.63-1.28c5.6,0,10.33,4.35,10.72,10.02,.4,5.92-4.08,11.06-9.99,11.46l-44.28,3.03c-2.84,.19-5.61-.74-7.79-2.64-2.17-1.89-3.48-4.51-3.67-7.36-.19-2.85,.74-5.61,2.64-7.79,1.89-2.17,4.51-3.48,7.36-3.67l44.28-3.03c.25-.02,.5-.03,.74-.03Z"/>
      <path class="cls-7" d="M79.1,445.16c-1.56,1.26-2.94,2.77-4.07,4.51-2.76,4.28-3.7,9.37-2.63,14.33l9.35,43.39c1.07,4.96,4.01,9.21,8.3,11.98,3.13,2.02,6.69,3.06,10.31,3.06,1.34,0,2.68-.14,4.02-.43,4.96-1.07,9.21-4.01,11.98-8.3,2.76-4.28,3.7-9.37,2.63-14.33l-9.35-43.39c-1.07-4.96-4.01-9.21-8.3-11.98-3.22-2.08-6.89-3.12-10.62-3.06-1.24,.02-2.48,.16-3.71,.43-2.94,.63-5.63,1.94-7.91,3.79Zm11.91,4.08c2.04,0,4.06,.59,5.83,1.73,2.42,1.56,4.09,3.96,4.69,6.75l9.35,43.39c.6,2.79,.07,5.66-1.49,8.09-1.56,2.42-3.96,4.09-6.75,4.69-2.79,.6-5.66,.07-8.09-1.49-2.42-1.56-4.09-3.96-4.69-6.75l-9.35-43.39c-.6-2.79-.07-5.66,1.49-8.09,1.56-2.42,3.96-4.09,6.75-4.69,.75-.16,1.51-.24,2.26-.24Z"/>
      <path class="cls-7" d="M210.66,459.11c2.76-4.28,3.7-9.37,2.63-14.33l-9.35-43.39c-1.07-4.96-4.01-9.21-8.3-11.98-4.28-2.77-9.37-3.7-14.33-2.63-10.27,2.21-16.82,12.36-14.61,22.63l9.35,43.39c1.07,4.96,4.01,9.21,8.3,11.98,3.13,2.02,6.69,3.06,10.31,3.06,1.34,0,2.68-.14,4.02-.43,4.96-1.07,9.21-4.01,11.98-8.3Zm-13.72,.19c-2.79,.6-5.66,.07-8.09-1.49-2.42-1.56-4.09-3.96-4.69-6.75l-9.35-43.39c-1.25-5.79,2.45-11.53,8.25-12.78,.75-.16,1.51-.24,2.26-.24,2.04,0,4.06,.59,5.83,1.73,2.42,1.56,4.09,3.96,4.69,6.75l9.35,43.39c.6,2.79,.07,5.66-1.49,8.09-1.56,2.42-3.96,4.09-6.75,4.69Z"/>
      <path class="cls-7" d="M176.29,321.64c1.21,.24,2.43,.35,3.64,.35,3.76,0,7.43-1.12,10.63-3.28,4.23-2.85,7.09-7.17,8.05-12.14l8.46-43.57c.97-4.98-.07-10.05-2.92-14.27-2.85-4.23-7.17-7.09-12.14-8.05-10.31-2-20.32,4.76-22.32,15.07l-8.46,43.57c-2,10.31,4.76,20.32,15.07,22.33Zm-6.93-20.75l8.46-43.57c1-5.13,5.51-8.7,10.55-8.7,.68,0,1.36,.06,2.05,.2,2.8,.54,5.24,2.16,6.85,4.55,1.61,2.39,2.2,5.25,1.66,8.05l-8.46,43.57c-.54,2.8-2.16,5.24-4.55,6.85s-5.25,2.2-8.05,1.66c-2.8-.54-5.24-2.16-6.85-4.55-1.61-2.39-2.2-5.25-1.66-8.05Z"/>
      <path class="cls-7" d="M242.17,761.87c48.9,20.68,100.83,31.17,154.35,31.17s105.45-10.49,154.35-31.17c47.22-19.97,89.62-48.56,126.03-84.97,29.32-29.32,53.55-62.52,72.31-99,4.54-8.83,8.77-17.84,12.66-27.04,20.68-48.9,31.17-100.83,31.17-154.35s-10.49-105.45-31.17-154.35c-19.97-47.22-48.56-89.62-84.97-126.03s-78.81-65-126.03-84.97C501.97,10.49,450.04,0,396.52,0s-105.45,10.49-154.35,31.17c-47.22,19.97-89.62,48.56-126.03,84.97S51.14,194.95,31.17,242.17C10.49,291.07,0,343,0,396.52s10.49,105.45,31.17,154.35c5.89,13.92,12.54,27.41,19.91,40.46,17.62,31.23,39.39,59.9,65.06,85.57,36.41,36.41,78.81,65,126.03,84.97Zm498.14-304.04s.04,0,.07,0c-.19,.1-.34,.17-.39,.16-.06,0,.05-.11,.32-.15Zm-343.79,67.81c-71.2,0-129.12-57.93-129.12-129.12s57.92-129.12,129.12-129.12,129.12,57.92,129.12,129.12-57.92,129.12-129.12,129.12Zm0,234.32c-21.7,0-42.97-1.92-63.64-5.58-103.79-18.41-192.5-81.01-245.91-167.6,2.47-.24,4.9-.65,7.26-1.17,5.22-1.15,10.18-2.9,14.98-4.87,2.4-.98,4.76-2.03,7.08-3.14,1.17-.55,2.31-1.13,3.46-1.7l1.71-.88,.85-.44,.71-.34c3.78-1.84,7.58-2.99,10.94-3.13,3.38-.16,6.33,.58,9.34,2.15,3.01,1.56,6.08,3.95,9.09,6.91,3.01,2.94,5.97,6.35,8.97,9.93,5.97,7.21,11.97,15.19,18.92,22.97,3.45,3.9,7.15,7.78,11.16,11.5,3.64,3.31,7.52,6.52,11.74,9.47,.48,.34,.95,.69,1.44,1.02,9.47,6.51,20.83,11.44,32.69,13.65,2.96,.58,5.94,.96,8.92,1.25,1.48,.11,2.99,.21,4.45,.28,1.41,.03,2.8,.09,4.22,.07,5.66,0,11.44-.34,17.25-1.34,5.82-.92,11.62-2.51,17.25-4.58,5.59-2.15,10.99-4.78,15.92-7.84,4.97-3.01,9.47-6.39,13.65-9.76,4.15-3.4,7.97-6.82,11.61-10.06,7.28-6.51,13.86-12.35,20.91-16.79,6.98-4.51,14.41-7.71,22.49-9.6,8.05-1.88,16.7-2.57,25.48-2.1,4.36,.3,8.65,1.03,12.79,2.15,4.15,1.1,8.12,2.66,11.99,4.27,7.72,3.39,15.02,6.99,23.06,10.54,8.03,3.56,16.28,8.06,25.52,12.76,4.62,2.33,9.51,4.69,14.75,6.85,5.24,2.15,10.84,4.11,16.76,5.52,5.9,1.42,12.08,2.3,18.23,2.51,6.15,.22,12.27-.19,18.12-1.14,2.94-.44,5.8-1.07,8.63-1.73,1.39-.37,2.81-.7,4.17-1.11,1.37-.4,2.71-.77,4.23-1.29,5.91-1.93,11.58-4.53,16.79-7.69,5.21-3.15,10.03-6.75,14.34-10.67,4.33-3.91,8.22-8.09,11.76-12.4,7.06-8.63,12.73-17.76,17.71-26.91,4.96-9.17,9.27-18.4,13.27-27.57,3.98-9.18,7.7-18.29,11.49-27.16,3.8-8.85,7.68-17.52,12.1-25.38,2.22-3.9,4.59-7.6,7.15-10.81,1.29-1.59,2.61-3.06,3.96-4.38l1.02-.95,1.04-.87,1.05-.79c.33-.26,.83-.55,1.23-.82,6.81-4.45,14.9-7.07,23.61-7.84,8.71-.81,17.9,.11,27.1,1.93,4.61,.9,9.23,2.03,13.9,3.28l1.75,.48,.62,.17c.37,.1,.74,.18,1.12,.24,.76,.12,1.55,.14,2.3,.08,1.5-.13,2.8-.59,3.85-1.12,1.05-.53,1.88-1.14,2.6-1.74,1.42-1.21,2.43-2.44,3.32-3.64,.89-1.2,1.63-2.4,2.31-3.59,.28-.49,.54-.98,.8-1.46,.44-.83,.86-1.66,1.26-2.49-.13,.79-.26,1.58-.4,2.38-29.24,171.3-178.76,302.11-358.26,302.11Zm362.42-336.08c-.62,1.55-1.23,3.1-1.87,4.64-1.86,4.48-3.83,8.91-5.91,13.2-2.09,4.27-4.35,8.49-6.91,12.03-.64,.87-1.29,1.7-1.94,2.4-.59,.65-1.2,1.18-1.68,1.51l-1.6-.63c-4.65-1.8-9.42-3.53-14.31-5.04-9.78-2.99-20.18-5.13-31.09-5.21-2.73-.01-5.48,.12-8.24,.38-2.76,.3-5.53,.72-8.29,1.33-5.5,1.24-10.96,3.15-16.05,5.81-.65,.35-1.25,.62-1.94,1.04-.68,.4-1.37,.8-2.03,1.22l-1.93,1.3-1.83,1.37c-2.38,1.86-4.53,3.87-6.51,5.93-3.94,4.14-7.24,8.48-10.26,12.86-5.98,8.77-10.88,17.68-15.59,26.48-4.69,8.8-9.15,17.52-13.72,25.98-4.56,8.46-9.19,16.71-14.2,24.43-5,7.71-10.39,14.89-16.21,21.05-5.84,6.13-12.16,11.16-18.82,14.46-3.32,1.69-6.74,2.91-10.22,3.79-.81,.23-1.86,.44-2.86,.66-1,.23-1.99,.38-2.98,.58-1.97,.31-3.93,.61-5.86,.76-7.74,.68-14.85-.09-21.97-2.34-7.12-2.21-14.46-6.01-22.46-10.69-4.09-2.39-8.35-4.99-12.83-7.63-4.27-2.52-8.73-5.07-13.43-7.52-9.57-5.08-20.64-8.61-31.95-9.99-4.46-.6-8.94-.91-13.38-1.08,78.32-11.44,138.65-79.04,138.65-160.48,0-89.44-72.76-162.2-162.2-162.2s-162.2,72.76-162.2,162.2c0,75.62,52.02,139.32,122.16,157.19,8.18,2.08,16.61,3.54,25.23,4.32-4.86,.55-9.75,1.33-14.63,2.45-2.76,.62-5.52,1.34-8.25,2.19-2.74,.82-5.45,1.77-8.12,2.8-5.34,2.11-10.55,4.55-15.45,7.37-9.82,5.63-18.43,12.31-26.11,18.45-7.71,6.16-14.7,11.61-21.6,15.62-6.91,4.02-13.83,6.71-21.53,8.3-1.92,.41-3.88,.72-5.88,.97-1.99,.29-4.04,.47-6.11,.61-1.03,.08-2.09,.1-3.13,.15l-2.9,.06c-1.91-.03-3.82-.09-5.69-.3-3.77-.39-7.48-1.14-11.12-2.34-1.83-.56-3.63-1.3-5.45-2.04-1.8-.81-3.61-1.64-5.38-2.64-5.31-2.89-10.48-6.62-15.58-10.9-1.75-1.47-3.5-3-5.24-4.59-6.8-6.22-13.48-13.21-20.9-20.32-3.72-3.56-7.67-7.13-12.17-10.5-4.47-3.35-9.6-6.58-15.69-8.71-3.04-1.04-6.31-1.77-9.64-2.01-.63-.05-1.25-.06-1.88-.07-2.7-.06-5.4,.18-7.96,.71-3.17,.64-6.14,1.67-8.84,2.96-2.7,1.28-5.23,2.73-7.53,4.34l-.87,.59-.72,.52-1.44,1.03c-.96,.67-1.92,1.35-2.9,2-1.94,1.32-3.9,2.6-5.88,3.8-3.96,2.42-8.04,4.57-12.19,6.31-3.09,1.27-6.24,2.28-9.39,2.82-2.64-4.57-5.18-9.21-7.62-13.9-26.08-50.1-40.83-106.99-40.83-167.26,0-140.62,80.28-262.84,197.41-323.25,49.8-25.68,106.25-40.19,166.04-40.19,200.41,0,363.45,163.04,363.45,363.45,0,9.21-.35,18.33-1.02,27.37Z"/>
    </g>
  </g>
</svg>